<svg id="svg-source" height="0" version="1.1"
            xmlns="http://www.w3.org/2000/svg"
            xmlns:xlink="http://www.w3.org/1999/xlink" style="position:absolute;display:none;">

<symbol id="ruche" x="0px" y="0px" viewBox="5.0 -10.0 100.0 135.0" preserveAspectRatio="xMinYMin meet">
<g>
<path d="M83.9,87.2v-2.6h-1.5V64.8H16.6v19.8h-1.3v2.6h2.8l-4.5,10.3h6.4l4.5-10.3h51.1l4.5,10.3h6.4L82,87.2H83.9z M62.4,84.7H37.1  v-3.3h25.3V84.7z"/>
<rect x="16.8" y="43.8" width="65.8" height="20.4"/>
<polygon fill="none" points="50.4,5.6 49,5.6 11.8,24.6 14.3,24.6 49.7,6.2 85.2,24.6 87.4,24.6 50.4,5.7 "/>
<path d="M55.2,5.6h5.5V2.9H38.7v2.7H44L9.4,23.3l1,2l1.2-0.6L17,43.1h65.3l5.3-18.4l1.5,0.8l1-2L55.2,5.6z M49.6,24  c-2.9,0-5.2-2.4-5.2-5.2c0-2.9,2.4-5.2,5.2-5.2c2.9,0,5.2,2.4,5.2,5.2C54.8,21.6,52.5,24,49.6,24z M85.2,24.6L49.7,6.2L14.3,24.6  h-2.4L49,5.6h1.4l0,0l37,18.9H85.2z"/>
</g>
</symbol>

<symbol id="alveole" x="0px" y="0px" viewBox="5.0 -10.0 100.0 135.0" preserveAspectRatio="xMinYMin meet">
	<g>
	<polygon points="13.5,29.9 13.5,70.8 48.9,91.3 84.4,70.8 84.4,29.9 48.9,9.4  "/>
	<path d="M48.9,2.5L7.5,26.4v47.9l41.4,23.9l41.4-23.9V26.4L48.9,2.5z M86.4,72L48.9,93.6L11.5,72V28.8L48.9,7.1l37.4,21.6V72z"/>
</g>
</symbol>

<symbol id="logomelli" fill="#93a1a2"  x="0px" y="0px" viewBox="0 0 32 32" preserveAspectRatio="xMinYMin meet">
	<path d="M11.312,0.1239c-0.277,0.2369-0.136,0.3729,1.594,1.5398l1.74,1.1729v0.8975c0,0.4936-0.083,0.9413-0.184,0.9949s-0.645-0.479-1.207-1.1837c-1.248-1.5627-1.815-1.9094-3.002-1.8339-0.6543,0.0417-1.0004,0.1822-1.3011,0.5285-0.4021,0.4629-0.4016,0.4945,0.0269,1.6753,0.2401,0.662,0.6805,1.509,0.9785,1.8822,0.7367,0.9232,0.7497,1.0537,0.1247,1.327-0.3597,0.1574-0.5864,0.4532-0.6773,0.8838-0.0751,0.356-0.2092,0.7939-0.298,0.973-0.114,0.2302-0.0617,0.3258,0.1783,0.3258,0.2234,0,0.386-0.2389,0.4752-0.6981,0.2155-1.11,0.2648-1.1633,1.0658-1.1633,0.544,0,0.984,0.168,1.545,0.5896l0.785,0.5896-0.669,0.4476c-0.464,0.3115-0.709,0.6675-0.803,1.1706-0.074,0.397-0.319,0.865-0.544,1.039-0.514,0.398-0.534,0.865-0.033,0.783,0.479-0.079,0.922-0.826,0.926-1.562,0.005-0.7169,0.837-1.4384,1.559-1.3509,0.477,0.0578,0.511,0.1426,0.511,1.2959,0,0.936,0.096,1.326,0.4,1.616,0.475,0.452,0.323,1.078-0.303,1.248-0.537,0.146-0.883,0.686-0.648,1.012,0.256,0.354,0.789,0.123,1.132-0.491,0.512-0.919,2.365-0.833,2.756,0.126,0.126,0.308,0.374,0.56,0.553,0.56,0.803,0,0.658-0.937-0.198-1.271-0.657-0.256-0.682-0.64-0.088-1.354,0.396-0.476,0.42-0.624,0.197-1.202-0.347-0.8995-0.128-1.5711,0.511-1.5711,0.865,0,1.321,0.4654,1.666,1.7041,0.232,0.834,0.439,1.196,0.709,1.24,0.504,0.081,0.482-0.262-0.054-0.846-0.242-0.263-0.435-0.755-0.435-1.108,0-0.5107-0.128-0.6973-0.651-0.9522-0.834-0.4061-0.821-0.5758,0.095-1.2013,1.325-0.905,2.513-0.5861,2.513,0.6748,0,0.4365,0.341,0.817,0.563,0.6275,0.148-0.1269-0.357-2.0004-0.54-2.0004-0.086,0-0.341-0.115-0.566-0.2555-0.392-0.2453-0.38-0.2932,0.305-1.2064,0.702-0.9363,1.325-2.3638,1.325-3.0351,0-0.5897-0.788-1.0872-1.723-1.0872-1.069,0-1.841,0.529-2.982,2.0444-0.462,0.6142-0.903,1.1175-0.979,1.1184-0.076,0.0011-0.208-0.3963-0.294-0.8826-0.155-0.8806-0.151-0.8874,0.9-1.6928,0.58-0.4448,1.422-1.0213,1.87-1.2812,0.449-0.2599,0.816-0.5403,0.816-0.623,0-0.368-0.474-0.3426-0.938,0.0503-1.293,1.0937-2.353,1.8249-2.647,1.8249-0.176,0-0.521-0.3351-0.765-0.7446s-0.524-0.7446-0.623-0.7446-0.357,0.3351-0.573,0.7446c-0.22,0.4182-0.544,0.7445-0.74,0.7445-0.191-0.0001-0.983-0.5026-1.761-1.1168-0.777-0.6141-1.422-1.1166-1.432-1.1167s-0.083,0.0557-0.163,0.124zm20.552,20.096c-0.261,0.251-0.411,0.123-1.695-1.449l-1.291-1.581h-0.98737c-0.54363,0-1.0356,0.075-1.0946,0.167s0.527,0.586,1.302,1.097c1.72,1.133,2.102,1.649,2.019,2.727-0.046,0.595-0.201,0.91-0.582,1.183-0.509,0.365-0.544,0.365-1.844-0.024-0.728-0.219-1.66-0.619-2.071-0.89-1.016-0.67-1.16-0.681-1.461-0.113-0.173,0.327-0.498,0.533-0.972,0.615-0.392,0.069-0.874,0.191-1.071,0.271-0.253,0.104-0.359,0.056-0.359-0.162,0-0.203,0.263-0.351,0.769-0.432,1.221-0.195,1.28-0.24,1.28-0.968,0-0.494-0.185-0.894-0.649-1.404l-0.649-0.713-0.492,0.607c-0.343,0.423-0.735,0.645-1.288,0.73-0.437,0.068-0.952,0.29-1.144,0.494-0.438,0.467-0.952,0.486-0.861,0.031,0.087-0.436,0.909-0.838,1.719-0.842,0.788-0.004,1.582-0.76,1.486-1.416-0.064-0.434-0.157-0.464-1.426-0.464-1.03,0-1.46-0.088-1.778-0.364-0.498-0.432-1.187-0.294-1.374,0.275-0.161,0.489-0.755,0.803-1.113,0.589-0.39-0.233-0.136-0.717,0.54-1.028,1.011-0.466,0.917-2.15-0.139-2.505-0.339-0.114-0.616-0.34-0.616-0.502,0-0.731,1.031-0.598,1.398,0.179,0.283,0.598,0.705,0.62,1.491,0.08,0.524-0.359,0.686-0.381,1.323-0.178,0.989,0.314,1.728,0.116,1.728-0.465,0-0.786-0.512-1.2-1.875-1.514-0.918-0.211-1.316-0.399-1.364-0.644-0.09-0.458,0.288-0.438,0.93,0.049,0.29,0.22,0.831,0.396,1.22,0.396,0.562,0,0.767,0.116,1.048,0.591,0.447,0.758,0.633,0.746,1.322-0.087,0.996-1.204,0.645-2.283-0.743-2.283-0.48,0-0.899-0.31-0.69-0.5112,0.139-0.1347,2.201,0.3242,2.201,0.4902,0,0.079,0.126,0.31,0.281,0.514,0.27,0.356,0.323,0.345,1.328-0.277,1.03-0.6376,2.601-1.204,3.34-1.204,0.649,0,1.196,0.717,1.196,1.566,0,0.972-0.582,1.673-2.249,2.709-0.676,0.42-1.23,0.821-1.231,0.89s0.436,0.189,0.971,0.267c0.969,0.141,0.977,0.137,1.863-0.817,0.489-0.528,1.124-1.293,1.41-1.7,0.286-0.408,0.595-0.741,0.686-0.741,0.405,0,0.377,0.43-0.056,0.852-1.203,1.175-2.008,2.138-2.008,2.405,0,0.16,0.369,0.473,0.819,0.695,0.451,0.222,0.82,0.477,0.82,0.567s-0.369,0.324-0.82,0.52c-0.46,0.2-0.819,0.495-0.819,0.672,0,0.174,0.553,0.894,1.229,1.601,0.676,0.706,1.229,1.291,1.229,1.301,0,0.009-0.061,0.075-0.136,0.148zm-20.552,11.656c-0.277-0.237-0.136-0.373,1.594-1.54l1.74-1.173v-0.8974c0-0.4936-0.083-0.9416-0.184-0.9946-0.101-0.054-0.645,0.479-1.207,1.183-1.248,1.563-1.815,1.91-3.002,1.834-0.6543-0.041-1.0003-0.182-1.3011-0.528-0.4021-0.463-0.4016-0.495,0.0269-1.676,0.2401-0.662,0.6805-1.508,0.9785-1.882,0.7367-0.923,0.7497-1.054,0.1247-1.327-0.3597-0.157-0.5864-0.453-0.6773-0.884-0.0751-0.355-0.2092-0.793-0.298-0.973-0.114-0.23-0.0616-0.325,0.1783-0.325,0.2234,0,0.386,0.239,0.4752,0.698,0.2155,1.11,0.2648,1.163,1.0658,1.163,0.544,0,0.984-0.168,1.545-0.59l0.785-0.589-0.669-0.448c-0.464-0.311-0.709-0.667-0.803-1.17-0.074-0.397-0.319-0.865-0.544-1.039-0.514-0.398-0.534-0.866-0.033-0.783,0.479,0.079,0.922,0.826,0.926,1.562,0.005,0.717,0.837,1.438,1.559,1.351,0.477-0.058,0.511-0.143,0.511-1.296,0-0.937,0.096-1.327,0.4-1.616,0.475-0.452,0.323-1.078-0.303-1.248-0.537-0.146-0.883-0.686-0.648-1.012,0.256-0.354,0.79-0.123,1.132,0.491,0.512,0.918,2.365,0.833,2.756-0.127,0.126-0.308,0.374-0.559,0.553-0.559,0.804,0,0.658,0.937-0.198,1.271-0.657,0.256-0.682,0.64-0.088,1.354,0.396,0.476,0.42,0.624,0.197,1.202-0.347,0.899-0.128,1.571,0.511,1.571,0.865,0,1.321-0.466,1.666-1.704,0.232-0.834,0.44-1.197,0.709-1.24,0.504-0.082,0.482,0.262-0.054,0.845-0.242,0.264-0.435,0.756-0.435,1.109,0,0.51-0.128,0.697-0.651,0.952-0.834,0.406-0.821,0.576,0.095,1.201,1.325,0.905,2.513,0.586,2.513-0.675,0-0.436,0.341-0.817,0.563-0.627,0.148,0.127-0.357,2-0.539,2-0.087,0-0.342,0.115-0.567,0.256-0.392,0.245-0.38,0.293,0.305,1.206,0.702,0.936,1.325,2.364,1.325,3.035,0,0.59-0.788,1.087-1.723,1.087-1.069,0-1.841-0.528-2.982-2.044-0.462-0.614-0.903-1.117-0.979-1.118s-0.208,0.396-0.294,0.882c-0.154,0.881-0.151,0.888,0.9,1.693,0.58,0.445,1.422,1.021,1.871,1.281,0.448,0.26,0.815,0.541,0.815,0.623,0,0.368-0.474,0.343-0.938-0.05-1.293-1.094-2.353-1.825-2.647-1.825-0.176,0-0.52,0.335-0.765,0.745-0.244,0.409-0.524,0.744-0.623,0.744s-0.357-0.335-0.573-0.744c-0.22-0.418-0.544-0.745-0.739-0.745-0.192,0-0.984,0.503-1.762,1.117-0.777,0.614-1.421,1.117-1.431,1.117s-0.084-0.056-0.164-0.124zm-11.176-20.175c0.2607-0.252,0.4104-0.124,1.6945,1.449l1.2909,1.581h0.9876c0.5432,0,1.0359-0.076,1.095-0.168,0.059-0.092-0.5272-0.585-1.3027-1.097-1.7197-1.133-2.1013-1.649-2.0182-2.727,0.0459-0.595,0.2005-0.9093,0.5816-1.1827,0.5094-0.3653,0.5442-0.3648,1.8437,0.0245,0.7285,0.2182,1.6606,0.6182,2.0714,0.8892,1.016,0.67,1.1596,0.681,1.4604,0.114,0.1732-0.328,0.4987-0.534,0.9727-0.6161,0.3917-0.0683,0.8736-0.1901,1.0708-0.2708,0.253-0.1036,0.358-0.056,0.358,0.162,0,0.2029-0.2625,0.3509-0.7677,0.4319-1.2217,0.196-1.2803,0.24-1.2803,0.968,0,0.495,0.1849,0.895,0.6489,1.404l0.6488,0.713,0.4926-0.607c0.3427-0.422,0.7347-0.644,1.2877-0.73,0.437-0.067,0.952-0.29,1.144-0.494,0.438-0.467,0.952-0.485,0.861-0.03-0.087,0.435-0.909,0.838-1.719,0.841-0.788,0.004-1.5823,0.761-1.486,1.417,0.064,0.433,0.157,0.464,1.426,0.464,1.031,0,1.46,0.087,1.778,0.363,0.498,0.432,1.187,0.294,1.374-0.275,0.161-0.488,0.755-0.802,1.113-0.589,0.39,0.233,0.136,0.718-0.54,1.029-1.01,0.465-0.917,2.149,0.14,2.505,0.338,0.114,0.615,0.34,0.615,0.502,0,0.73-1.031,0.598-1.398-0.18-0.282-0.597-0.705-0.62-1.491-0.08-0.524,0.36-0.686,0.382-1.323,0.179-0.989-0.315-1.728-0.117-1.728,0.464,0,0.787,0.512,1.2,1.875,1.514,0.918,0.211,1.317,0.399,1.365,0.644,0.089,0.458-0.289,0.438-0.931-0.049-0.29-0.22-0.831-0.395-1.22-0.395-0.562,0-0.767-0.116-1.048-0.592-0.4465-0.757-0.6332-0.745-1.3217,0.087-0.9959,1.204-0.6449,2.283,0.7427,2.283,0.4803,0,0.899,0.31,0.69,0.512-0.139,0.134-2.2008-0.325-2.2008-0.49,0-0.079-0.1266-0.311-0.2812-0.515-0.2701-0.356-0.3227-0.345-1.3278,0.277-1.0304,0.638-2.6013,1.204-3.3401,1.204-0.649,0-1.1966-0.716-1.1966-1.565,0-0.972,0.5823-1.673,2.2499-2.71,0.676-0.42,1.2298-0.82,1.2308-0.89,0.0013-0.069-0.436-0.189-0.9712-0.267-0.9691-0.14-0.9766-0.137-1.863,0.818-0.4895,0.527-1.1239,1.292-1.41,1.7-0.28602,0.407-0.59453,0.741-0.68557,0.741-0.40496,0-0.37702-0.431,0.05532-0.853,1.2036-1.175,2.0084-2.138,2.0084-2.405,0-0.16-0.3688-0.473-0.8194-0.695-0.4507-0.221-0.81945-0.477-0.81945-0.567s0.36875-0.324,0.81945-0.52c0.4601-0.2,0.8193-0.494,0.8192-0.672-0.0001-0.174-0.5531-0.894-1.2289-1.6-0.67591-0.707-1.2289-1.292-1.229-1.301-0.00007-0.009,0.06133-0.076,0.13643-0.148z"/>
</symbol>

</svg>